<?xml version="1.0" standalone="no"?>
<!DOCTYPE svg PUBLIC "-//W3C//DTD SVG 20010904//EN"
 "http://www.w3.org/TR/2001/REC-SVG-20010904/DTD/svg10.dtd">
<svg version="1.0" xmlns="http://www.w3.org/2000/svg"
 width="1280.000000pt" height="1030.000000pt" viewBox="0 0 1280.000000 1030.000000"
 preserveAspectRatio="xMidYMid meet">
<metadata>
Created by potrace 1.15, written by Peter Selinger 2001-2017
</metadata>
<g transform="translate(0.000000,1030.000000) scale(0.100000,-0.100000)"
fill="#000000" stroke="none">
<path d="M7485 10286 c-44 -8 -231 -53 -416 -100 -263 -68 -350 -86 -405 -86
-69 0 -170 22 -470 104 -138 38 -187 43 -227 25 -48 -22 -52 -40 -57 -274 l-5
-220 -81 -17 c-137 -28 -200 -71 -286 -192 -53 -76 -90 -180 -129 -361 -12
-55 -33 -122 -47 -149 -51 -94 -271 -272 -553 -447 -188 -117 -257 -169 -350
-265 -143 -150 -177 -241 -186 -506 l-6 -156 43 -74 c23 -40 116 -177 206
-304 90 -128 164 -236 164 -242 0 -5 -46 -57 -103 -113 -58 -60 -115 -127
-132 -159 -29 -53 -30 -60 -30 -180 0 -101 4 -138 22 -196 26 -82 80 -145 141
-165 20 -6 43 -16 50 -22 9 -7 12 -107 12 -438 l0 -428 -27 -18 c-16 -11 -101
-61 -190 -113 -207 -119 -273 -170 -378 -287 -200 -224 -328 -433 -413 -674
-16 -46 -73 -239 -127 -429 -54 -190 -100 -348 -104 -352 -3 -4 -24 -2 -46 4
-41 10 -67 4 -110 -26 -34 -24 -106 12 -238 120 -205 166 -386 420 -457 639
-12 39 -74 207 -137 375 -63 168 -139 391 -169 495 -140 485 -282 769 -498
994 -81 84 -114 104 -431 267 -282 145 -294 153 -418 292 -32 37 -92 56 -144
46 -54 -10 -102 -61 -162 -171 -105 -193 -171 -267 -361 -403 -137 -98 -185
-142 -211 -192 -26 -51 -24 -90 7 -127 41 -49 81 -55 369 -56 255 0 262 -1
349 -28 238 -74 447 -233 529 -401 28 -57 74 -215 111 -382 36 -164 161 -990
251 -1664 35 -257 67 -422 111 -561 41 -130 160 -431 210 -530 45 -90 131
-195 254 -312 122 -115 246 -202 373 -262 l92 -44 0 -54 c0 -70 19 -93 86
-102 27 -4 49 -11 49 -16 0 -5 -14 -57 -31 -117 -33 -113 -52 -142 -98 -142
-53 -1 -91 -52 -91 -122 0 -91 29 -111 360 -258 263 -117 362 -154 559 -211
885 -255 1577 -361 2981 -454 206 -13 447 -30 535 -36 180 -12 1011 -5 1260
12 635 42 1167 86 1755 145 507 50 619 64 780 98 63 14 214 45 335 71 342 71
437 93 620 145 491 140 849 286 956 389 46 45 69 94 69 149 0 59 -56 112 -118
112 -16 0 -34 6 -40 13 -8 10 -129 406 -252 827 -31 105 -225 759 -355 1195
-77 258 -187 630 -286 965 -33 111 -62 177 -161 370 -66 129 -130 249 -141
265 -12 17 -61 74 -111 129 -95 103 -140 137 -436 325 -80 51 -151 100 -157
109 -10 12 -13 114 -13 433 0 321 3 419 13 426 6 6 29 16 49 22 48 16 101 75
126 144 44 115 49 302 12 377 -34 67 -107 156 -178 215 -39 33 -72 66 -72 73
0 7 53 86 117 175 64 89 142 198 174 241 31 43 74 112 94 152 l38 74 -7 132
c-9 180 -41 319 -91 395 -61 93 -192 215 -319 298 -64 41 -169 109 -233 151
-158 102 -329 231 -379 286 -59 63 -92 125 -110 204 -34 146 -87 311 -117 368
-21 40 -53 77 -102 118 -89 75 -109 86 -202 104 -41 8 -79 17 -84 20 -5 3 -9
101 -9 217 0 235 -4 251 -60 280 -46 24 -72 19 -342 -58 -270 -77 -316 -86
-386 -75 -78 13 -384 86 -547 130 -77 21 -167 44 -200 50 -95 18 -338 21 -430
6z m-1575 -855 c0 -49 4 -72 15 -81 29 -24 143 -4 385 66 222 64 240 68 335
68 86 -1 129 -8 305 -52 364 -90 451 -105 665 -109 223 -5 245 -2 720 106 171
39 333 71 360 71 48 0 112 -17 476 -124 173 -51 215 -55 250 -27 19 15 25 32
29 83 6 75 19 82 90 46 42 -21 50 -32 106 -143 33 -67 77 -170 98 -230 59
-169 99 -246 164 -313 78 -78 244 -197 470 -336 207 -127 286 -189 363 -286
90 -112 149 -270 149 -397 0 -68 -74 -202 -345 -623 -168 -261 -199 -325 -221
-450 -22 -130 -15 -195 37 -316 52 -122 63 -137 119 -167 l45 -23 3 -359 c1
-213 -2 -363 -7 -368 -13 -13 -166 107 -200 157 -39 57 -66 133 -95 275 -32
150 -32 162 -1 191 17 16 25 34 25 56 0 54 -8 59 -550 348 -359 192 -425 235
-569 372 -130 122 -155 136 -395 213 -184 59 -351 101 -521 131 -66 12 -123
24 -127 27 -5 2 -8 15 -8 29 0 33 -23 85 -44 103 -14 12 -16 24 -11 64 5 37 3
59 -10 88 -10 22 -16 41 -14 43 2 2 31 17 64 34 219 110 273 318 120 466 -57
56 -127 96 -228 132 -66 23 -83 33 -102 64 -29 46 -78 88 -131 112 -38 16 -46
17 -82 4 -91 -32 -172 -92 -172 -126 0 -25 -28 -46 -95 -71 -121 -44 -217
-126 -257 -217 -24 -53 -21 -137 6 -193 25 -52 109 -133 177 -169 33 -17 59
-34 59 -37 0 -3 -10 -21 -21 -40 -17 -28 -20 -43 -15 -83 6 -44 4 -50 -19 -68
-28 -22 -59 -87 -51 -107 3 -8 -1 -18 -7 -23 -7 -5 -93 -28 -192 -51 -452
-106 -604 -150 -715 -207 -66 -34 -97 -58 -258 -195 -186 -159 -430 -316 -747
-482 -104 -54 -200 -110 -212 -123 -31 -34 -29 -67 8 -109 l32 -36 -7 -101
c-10 -161 -60 -287 -145 -367 -57 -54 -152 -121 -162 -115 -5 3 -9 165 -9 369
0 395 -4 371 60 404 27 14 44 36 76 99 51 100 69 181 67 297 -2 147 -60 274
-269 595 -130 200 -235 374 -282 467 -26 51 -29 64 -22 108 44 275 156 433
427 604 340 215 461 301 556 397 69 70 93 116 138 266 40 133 127 327 172 382
23 29 78 53 125 55 21 1 22 -3 22 -68z m-1069 -2666 c36 -76 53 -165 44 -230
-11 -87 -42 -102 -47 -22 l-3 52 -97 3 -98 3 0 -81 c0 -44 -3 -80 -6 -80 -31
0 -44 98 -23 175 28 108 64 181 113 233 l50 54 20 -24 c10 -13 32 -50 47 -83z
m5811 27 c46 -51 58 -71 81 -148 39 -129 44 -177 21 -211 l-19 -28 -5 80 -5
80 -95 0 -95 0 -3 -57 c-3 -63 -13 -71 -38 -33 -25 39 -17 206 14 264 27 52
71 111 82 111 4 0 32 -26 62 -58z"/>
</g>
</svg>
